<svg data-v-0dd9719b="" version="1.0" xmlns="http://www.w3.org/2000/svg" xmlns:xlink="http://www.w3.org/1999/xlink" width="100%" height="100%" viewBox="0 0 340.000000 250.000000" preserveAspectRatio="xMidYMid meet" color-interpolation-filters="sRGB" style="margin: auto;">   <g data-v-0dd9719b="" fill="#333333" class="pmspacesvg" transform="translate(85.44490051269531,94.52838516235352)"><!----> <g><g class="tp-name" mask="url(#320e1415-aff7-4791-bb83-2253167736bf)"><rect data-gra="graph-name" x="0" y="27.971614837646484" width="169.11019897460938" height="27.971614837646484"></rect> <g transform="translate(10,5)"><svg data-gra="path-name-1" fill="#333333" width="149.11019897460938" height="22.971614837646484"><g data-gra="path-name" fill-rule="" class="tp-name" fill="#333333" transform="translate(0,0)"><g transform="scale(1)"><g><path d="M9.08-13.96L9.08-13.96Q7.95-12.46 8.24-10.58L8.24-10.58Q8.33-9.86 8.35-8.89L8.35-8.89Q8.51-7.41 8.74-5.72 8.97-4.03 9.35-2.47 9.72-0.91 10.45 0.08L10.45 0.08Q11.01 0.91 11.82 0.99 12.62 1.07 13.51 0.54L13.51 0.54Q14.93-0.43 16.03-2.16 17.13-3.89 17.97-5.89 18.8-7.9 19.39-9.72L19.39-9.72Q19.79-10.85 20.14-11.76L20.14-11.76Q20.17-11.79 20.17-11.84L20.17-11.84Q20.25-12 20.36-12.23 20.46-12.46 20.61-12.62 20.76-12.78 21-12.73L21-12.73Q21.14-12.7 21.2-12.58 21.27-12.46 21.28-12.33 21.3-12.19 21.27-12.11L21.27-12.11Q20.95-10.29 20.11-7.76 19.28-5.24 18.03-2.89 16.78-0.54 15.33 0.73L15.33 0.73Q14.88 1.07 14.39 1.37 13.91 1.67 13.21 1.83L13.21 1.83Q11.57 2.18 9.98 1.68 8.38 1.18 7.39-0.03L7.39-0.03Q6.5-1.15 5.98-2.81 5.45-4.46 5.16-6.14 4.86-7.81 4.7-8.97L4.7-8.97Q4.22-7.49 3.06-6.93 1.91-6.36 0.54-6.57-0.83-6.77-2.08-7.57-3.33-8.38-4.03-9.64L-4.03-9.64Q-4.51-10.61-4.5-11.79-4.48-12.97-3.83-14.21-3.17-15.44-1.72-16.57L-1.72-16.57Q-1.32-16.84-0.43-17.2 0.46-17.56 1.61-17.59 2.77-17.62 4-16.95L4-16.95Q3.89-18.8 3.95-21.55 4-24.3 4.32-27.24 4.65-30.19 5.53-32.63 6.42-35.07 8.06-36.31L8.06-36.31Q9.21-37.17 10.73-36.98 12.25-36.79 13.54-35.61L13.54-35.61Q14.88-34.32 15.27-32.54 15.66-30.75 15.46-28.83 15.25-26.91 14.7-25.19 14.15-23.47 13.67-22.29L13.67-22.29Q11.87-17.94 9.08-13.96ZM9.02-32.2L9.02-32.2Q8.51-30.05 8.14-26.9 7.76-23.74 7.67-20.5 7.57-17.27 7.92-14.88L7.92-14.88Q9.32-16.89 10.73-19.81 12.14-22.72 12.89-24.9L12.89-24.9Q12.94-25.19 13.02-25.51L13.02-25.51Q13.37-26.53 13.72-27.78 14.07-29.03 14.18-30.36 14.29-31.69 13.94-32.92 13.59-34.16 12.6-35.13L12.6-35.13Q11.66-35.93 11.05-35.78 10.45-35.64 10.03-34.95 9.61-34.27 9.35-33.5 9.08-32.74 9.02-32.31L9.02-32.31Q9.02-32.25 9.02-32.2ZM4.06-13.64L4.06-13.64Q3.87-15.04 3.38-15.46 2.9-15.87 2.31-15.64 1.72-15.42 1.15-14.82 0.59-14.23 0.19-13.62L0.19-13.62Q-0.46-12.41-0.26-11.23-0.05-10.04 0.62-9.4L0.62-9.4Q1.34-8.75 2.01-8.86 2.69-8.97 3.2-9.51 3.71-10.04 4-10.72 4.3-11.39 4.24-11.87L4.24-11.87Q4.19-12.49 4.16-12.85 4.14-13.21 4.06-13.64ZM27.07-6.42L27.07-6.42Q25.73-6.1 24.28-6.28 22.83-6.47 21.77-7.2 20.71-7.92 20.38-9.21L20.38-9.21Q19.66-12.27 20.44-15.07L20.44-15.07Q20.63-15.93 21.91-16.01L21.91-16.01Q23.15-16.09 23.71-15.76 24.28-15.44 24.41-14.58L24.41-14.58Q24.44-13.45 24.41-11.87L24.41-11.87Q24.41-10.69 24.41-9.57 24.41-8.46 24.63-7.73L24.63-7.73Q24.87-7.14 25.45-7.13 26.02-7.12 26.75-7.41 27.47-7.71 28.06-8.04 28.65-8.38 28.84-8.57L28.84-8.57Q29.7-9.13 30.37-9.8 31.04-10.47 31.64-11.2L31.64-11.2Q31.96-11.55 32.31-11.9L32.31-11.9Q32.44-12.06 32.55-12.25L32.55-12.25Q32.68-12.49 32.87-12.65L32.87-12.65Q32.95-12.76 33.06-12.78 33.17-12.81 33.35-12.73L33.35-12.73Q33.73-12.46 33.14-11.56 32.55-10.66 31.46-9.56 30.37-8.46 29.17-7.57 27.96-6.69 27.07-6.42ZM20.54-18.34L20.54-18.34Q20.14-18.53 20.13-18.76 20.11-18.99 20.22-19.2L20.22-19.2Q20.57-19.98 21.47-20.29 22.37-20.6 23.63-20.38L23.63-20.38Q24.44-20.2 24.6-19.79 24.76-19.39 24.37-18.95 23.98-18.5 23.2-18.23L23.2-18.23Q22.56-18.05 21.91-18.03 21.27-18.02 20.54-18.34ZM54.6-12.76L54.6-12.76Q55.03-12.62 54.99-11.66 54.95-10.69 54.53-9.25 54.11-7.81 53.35-6.27 52.58-4.73 51.5-3.4 50.41-2.07 49.08-1.33 47.75-0.59 46.16-0.78L46.16-0.78Q43.43-1.18 42.38-3.41L42.38-3.41Q41.89-4.43 41.71-5.44 41.52-6.45 41.46-7.44L41.46-7.44Q41.46-7.6 41.46-7.84L41.46-7.84Q41.41-8.27 41.36-8.62L41.36-8.62Q41.14-8.33 40.75-8.04 40.36-7.76 40.07-7.6L40.07-7.6Q38.75-6.85 36.85-6.98L36.85-6.98Q35.26-7.12 34.15-7.75 33.03-8.38 32.66-9.43L32.66-9.43Q32.63-9.53 32.63-9.61L32.63-9.61Q31.58-13.88 35.26-16.7L35.26-16.7Q36.04-17.29 37.44-17.66 38.83-18.02 40.42-17.98 42-17.94 43.18-17.32L43.18-17.32Q43.18-17.32 43.18-17.32L43.18-17.32Q43.18-17.4 43.24-17.51 43.29-17.62 43.48-17.7L43.48-17.7Q43.8-17.83 44.2-17.82 44.61-17.81 45.01-17.58 45.41-17.35 45.68-16.81L45.68-16.81Q45.87-16.33 45.8-14.86 45.73-13.4 45.57-11.49L45.57-11.49Q45.41-9.56 45.32-7.75 45.22-5.94 45.39-4.86L45.39-4.86Q45.55-3.68 46-2.47L46-2.47Q46.16-2.2 46.35-1.95 46.54-1.69 46.97-1.56L46.97-1.56Q47.86-1.37 48.82-2.12 49.79-2.87 50.73-4.22 51.67-5.56 52.41-7.12 53.15-8.67 53.62-10.04 54.09-11.41 54.11-12.25L54.11-12.25Q54.19-12.35 54.19-12.43L54.19-12.43Q54.25-12.6 54.32-12.7 54.38-12.81 54.6-12.76ZM38.83-8.35L38.83-8.35Q39.4-8.67 40.08-9.52 40.77-10.37 41.41-11.45 42.06-12.54 42.38-13.63 42.7-14.72 42.5-15.56 42.3-16.41 41.25-16.78L41.25-16.78Q40.52-17.03 39.8-16.78L39.8-16.78Q38.35-16.17 37.57-14.93 36.79-13.7 36.59-12.26 36.39-10.82 36.66-9.56L36.66-9.56Q36.68-9.43 36.68-9.35L36.68-9.35Q36.79-9.16 36.82-9L36.82-9Q37.17-8.33 37.68-8.15 38.19-7.98 38.83-8.35ZM75.49-12.76L75.49-12.76Q75.44-12.78 75.53-12.8 75.63-12.81 75.75-12.8 75.87-12.78 75.93-12.73 76-12.68 75.99-12.57 75.97-12.46 75.81-12.27L75.81-12.27Q75.49-11.82 73.99-11.16 72.48-10.5 69.37-9.67L69.37-9.67Q70.33-7.68 70.47-5.49 70.6-3.3 69.53-1.64L69.53-1.64Q68.54-0.27 66.76 0.34 64.99 0.94 62.6 0.86L62.6 0.86Q60.16 0.78 58.85-0.21 57.55-1.21 57.63-2.82L57.63-2.82Q57.77-3.79 58.34-4.54 58.92-5.29 59.75-5.94L59.75-5.94Q60.83-6.69 61.98-7.34 63.14-8 64.35-8.65L64.35-8.65Q64.4-8.67 64.51-8.7L64.51-8.7Q65.18-9.08 65.26-9.51 65.34-9.94 64.96-10.55L64.96-10.55Q64.51-11.23 63.93-11.86 63.35-12.49 62.41-13L62.41-13Q61.5-13.48 60.71-13.43 59.91-13.37 59.32-12.98 58.73-12.6 58.38-12.06 58.03-11.52 57.95-11.06L57.95-11.06Q57.77-8.89 57.5-6.61L57.5-6.61Q57.42-5.94 57.39-5.32L57.39-5.32Q57.31-4.51 57.01-3.76L57.01-3.76Q56.75-2.95 55.38-3.01L55.38-3.01Q53.68-2.98 53.55-4.11L53.55-4.11Q53.39-6.58 53.38-10.34 53.36-14.1 53.66-18.38 53.95-22.67 54.7-26.75 55.46-30.83 56.69-33.96 57.93-37.09 59.83-38.54L59.83-38.54Q60.69-39.16 62-39.48 63.3-39.8 64.75-39.75L64.75-39.75Q68.45-39.5 69.64-37.01L69.64-37.01Q70.28-35.48 69.93-33.41 69.58-31.34 68.64-29.02 67.7-26.69 66.44-24.44 65.18-22.18 63.96-20.29 62.73-18.4 61.82-17.19L61.82-17.19Q61.18-16.33 60.51-15.33L60.51-15.33Q60.16-14.85 59.73-14.29L59.73-14.29Q65.93-15.28 68.86-10.58L68.86-10.58Q69.39-10.72 70.12-10.85L70.12-10.85Q71.52-11.15 73.02-11.59 74.52-12.03 75.49-12.76ZM63.54-38.27L63.54-38.27Q62.09-37.17 61.15-34.97 60.21-32.76 59.63-29.97 59.06-27.18 58.73-24.28 58.41-21.38 58.4-18.88 58.38-16.38 58.52-14.77L58.52-14.77Q58.92-15.33 59.32-15.9L59.32-15.9Q60.29-17.21 61.2-18.5L61.2-18.5Q61.96-19.52 63.07-21.36 64.18-23.2 65.33-25.49 66.47-27.77 67.26-30.1 68.05-32.44 68.15-34.43 68.24-36.42 67.27-37.71L67.27-37.71Q66.47-38.67 65.47-38.81 64.48-38.94 63.54-38.27ZM61.85-0.24L61.85-0.24Q63.38 0.08 64.27-0.44 65.15-0.97 65.59-1.99 66.04-3.01 66.17-4.2 66.31-5.4 66.2-6.47 66.09-7.55 65.93-8.14L65.93-8.14Q65.82-8.08 65.53-7.95L65.53-7.95Q64.69-7.57 63.23-6.73 61.77-5.88 60.61-4.65L60.61-4.65Q59.91-3.84 59.71-2.94 59.51-2.04 60-1.3 60.48-0.56 61.85-0.24ZM92.01-12.86L92.01-12.86Q92.38-12.86 92.4-12.7 92.41-12.54 92.29-12.3 92.17-12.06 92.01-11.84L92.01-11.84Q91.98-11.79 91.9-11.76L91.9-11.76Q91.31-10.8 90.37-9.8 89.43-8.81 88.19-7.98 86.96-7.14 85.37-6.71L85.37-6.71Q83.9-6.31 82.19-6.42 80.49-6.53 78.82-7.33 77.16-8.14 75.79-9.8L75.79-9.8Q74.44-11.49 74.66-13.33 74.87-15.17 76.62-16.33L76.62-16.33Q77.56-16.95 78.7-17.31 79.84-17.67 81.32-17.59L81.32-17.59Q81.99-17.59 82.63-17.42 83.28-17.24 83.71-16.78L83.71-16.78Q84.17-16.25 84.02-15.83 83.87-15.42 83.39-15.09L83.39-15.09Q82.71-14.56 81.83-14.19 80.94-13.83 79.81-13.75L79.81-13.75Q79.2-13.72 78.97-13.52 78.74-13.32 78.74-12.94L78.74-12.94Q78.71-11.82 79.26-10.76 79.81-9.69 81.13-8.73L81.13-8.73Q82.39-7.81 83.71-7.59 85.02-7.36 86.29-7.9L86.29-7.9Q87.6-8.49 88.62-9.35 89.64-10.21 90.48-11.12L90.48-11.12Q90.64-11.28 90.8-11.44L90.8-11.44Q90.85-11.49 91.01-11.67 91.17-11.84 91.31-12.06L91.31-12.06Q91.47-12.27 91.63-12.45 91.79-12.62 91.89-12.74 91.98-12.86 92.01-12.86ZM80.78-16.35L80.78-16.35Q80.08-15.98 79.65-15.48 79.22-14.99 79.04-14.26L79.04-14.26Q81.26-14.53 81.83-15.76L81.83-15.76Q81.96-15.9 81.94-16.06 81.91-16.22 81.64-16.38L81.64-16.38Q81.37-16.54 81.16-16.5 80.94-16.46 80.78-16.35ZM110.94-12.68L110.94-12.68Q111.13-12.86 111.42-12.85 111.72-12.84 111.88-12.6L111.88-12.6Q112.07-12.17 111.85-11.57 111.64-10.98 111.37-10.53L111.37-10.53Q111.32-10.42 111.29-10.34L111.29-10.34Q111.13-10.07 111.05-9.78L111.05-9.78Q110.4-8.57 109.49-6.86 108.58-5.16 107.42-3.32 106.27-1.48 104.9 0.16 103.53 1.8 102 2.91 100.47 4.03 98.88 4.24L98.88 4.24Q96.46 4.51 94.95 4.08 93.43 3.65 92.53 2.75 91.63 1.85 91.28 0.67 90.93-0.51 90.84-1.73 90.74-2.95 90.8-4.03L90.8-4.03Q91.17-12.57 92.41-20.97L92.41-20.97Q92.46-21.43 92.52-21.91L92.52-21.91Q92.46-22.4 91.77-22.53L91.77-22.53Q89.78-22.96 87.79-23.28 85.8-23.61 83.86-23.62 81.91-23.63 80-23.12L80-23.12Q79.98-23.12 79.9-23.1L79.9-23.1Q79.04-22.88 78.23-22.6 77.42-22.32 76.81-21.83L76.81-21.83Q76.62-21.65 76.3-21.56 75.97-21.48 75.65-21.73L75.65-21.73Q75.36-21.97 75.52-22.14 75.68-22.32 75.95-22.45L75.95-22.45Q75.97-22.45 76.03-22.48L76.03-22.48Q76.83-22.99 77.8-23.34L77.8-23.34Q80.19-24.22 82.9-24.34 85.62-24.47 88.54-24.09L88.54-24.09Q89.86-23.93 91.25-23.69L91.25-23.69Q91.93-23.58 92.6-23.47L92.6-23.47Q92.73-23.96 92.79-24.47L92.79-24.47Q93-25.65 93.24-26.8L93.24-26.8Q93.38-27.74 93.86-28.57L93.86-28.57Q94.16-29.03 94.72-29.15 95.28-29.27 96.01-29.14L96.01-29.14Q96.73-29 96.92-28.67 97.11-28.33 97.11-27.93L97.11-27.93Q97.11-27.93 97.11-27.9L97.11-27.9Q97.3-26.1 97.11-24.33L97.11-24.33Q97.06-23.87 97.03-23.42L97.03-23.42Q97.03-22.93 97.31-22.69 97.59-22.45 98.26-22.34L98.26-22.34Q100.63-21.97 102.96-21.81 105.3-21.65 107.58-21.97L107.58-21.97Q109.11-22.18 110.46-22.63 111.8-23.07 112.85-23.79L112.85-23.79Q113.57-24.28 114.38-24.71L114.38-24.71Q114.97-24.98 115.59-25.03 116.2-25.08 116.34-24.81 116.47-24.55 115.61-23.85L115.61-23.85Q113.87-22.5 111.53-21.82 109.19-21.14 106.43-20.97L106.43-20.97Q102.59-20.76 98.59-21.3L98.59-21.3Q97.51-21.46 97.22-21.32 96.92-21.19 96.92-20.41L96.92-20.41Q96.33-13.19 95.77-5.99L95.77-5.99Q95.44-2.31 95.91-0.03 96.38 2.26 97.55 2.91 98.72 3.57 100.59 2.36 102.45 1.15 105.03-2.18L105.03-2.18Q106.08-3.57 106.84-4.97 107.61-6.36 108.36-7.76L108.36-7.76Q109.17-9.32 110.11-10.93L110.11-10.93Q110.16-11.12 110.4-11.57L110.4-11.57Q110.56-11.92 110.7-12.23 110.83-12.54 110.94-12.68ZM127.29-12.86L127.29-12.86Q127.67-12.86 127.68-12.7 127.7-12.54 127.58-12.3 127.46-12.06 127.29-11.84L127.29-11.84Q127.27-11.79 127.19-11.76L127.19-11.76Q126.6-10.8 125.66-9.8 124.72-8.81 123.48-7.98 122.25-7.14 120.66-6.71L120.66-6.71Q119.18-6.31 117.48-6.42 115.77-6.53 114.11-7.33 112.44-8.14 111.07-9.8L111.07-9.8Q109.73-11.49 109.95-13.33 110.16-15.17 111.91-16.33L111.91-16.33Q112.85-16.95 113.99-17.31 115.13-17.67 116.61-17.59L116.61-17.59Q117.28-17.59 117.92-17.42 118.57-17.24 119-16.78L119-16.78Q119.45-16.25 119.31-15.83 119.16-15.42 118.67-15.09L118.67-15.09Q118-14.56 117.12-14.19 116.23-13.83 115.1-13.75L115.1-13.75Q114.48-13.72 114.26-13.52 114.03-13.32 114.03-12.94L114.03-12.94Q114-11.82 114.55-10.76 115.1-9.69 116.42-8.73L116.42-8.73Q117.68-7.81 119-7.59 120.31-7.36 121.57-7.9L121.57-7.9Q122.89-8.49 123.91-9.35 124.93-10.21 125.76-11.12L125.76-11.12Q125.93-11.28 126.09-11.44L126.09-11.44Q126.14-11.49 126.3-11.67 126.46-11.84 126.6-12.06L126.6-12.06Q126.76-12.27 126.92-12.45 127.08-12.62 127.17-12.74 127.27-12.86 127.29-12.86ZM116.07-16.35L116.07-16.35Q115.37-15.98 114.94-15.48 114.51-14.99 114.32-14.26L114.32-14.26Q116.55-14.53 117.12-15.76L117.12-15.76Q117.25-15.9 117.22-16.06 117.2-16.22 116.93-16.38L116.93-16.38Q116.66-16.54 116.45-16.5 116.23-16.46 116.07-16.35ZM143.76-12.73L143.76-12.73Q143.76-12.73 143.85-12.73 143.95-12.73 144.11-12.72 144.27-12.7 144.39-12.66 144.51-12.62 144.58-12.55 144.64-12.49 144.58-12.39 144.51-12.3 144.27-12.14L144.27-12.14Q142.58-11.09 140.75-9.91L140.75-9.91Q138.49-8.38 136.37-7.12L136.37-7.12Q135.89-6.82 135.92-6.51 135.94-6.2 136.26-5.8L136.26-5.8Q137.18-4.65 138.08-3.14 138.98-1.64 139.46-0.07 139.94 1.5 139.69 2.85 139.43 4.19 138.06 5.08L138.06 5.08Q136.56 6.02 134.29 6.16 132.02 6.31 129.63 5.61L129.63 5.61Q127.56 4.94 126.74 3.81 125.93 2.69 126.02 1.45 126.11 0.21 126.7-0.81L126.7-0.81Q128.18-3.33 130.92-5.18L130.92-5.18Q131.43-5.56 131.44-5.95 131.46-6.34 130.95-6.85L130.95-6.85Q129.82-8.08 128.52-9.72 127.21-11.36 126.52-12.65L126.52-12.65Q125.87-14.02 126.4-15.15 126.92-16.27 128.36-16.88 129.79-17.48 131.89-17.29L131.89-17.29Q131.89-17.29 131.91-17.29L131.91-17.29Q132.21-17.27 132.5-17.21L132.5-17.21Q132.59-17.19 132.67-17.16L132.67-17.16Q133.23-17.05 133.7-16.85 134.17-16.65 134.17-16.25L134.17-16.25Q134.17-15.76 133.69-15.7 133.2-15.63 132.59-15.82L132.59-15.82Q131.94-15.98 131.66-15.86 131.38-15.74 131.14-15.5L131.14-15.5Q130.33-14.53 130.73-13.28 131.14-12.03 132.17-10.74 133.2-9.45 134.28-8.33L134.28-8.33Q134.65-7.92 134.98-7.6L134.98-7.6Q136.67-8.73 139.19-10.31 141.72-11.9 143.76-12.73ZM135.73 2.18L135.73 2.18Q135.73 0.54 134.87-1.13 134.01-2.79 132.69-4.57L132.69-4.57Q130.22-2.55 129.39-0.78 128.56 0.99 128.91 2.35 129.26 3.71 130.34 4.46 131.43 5.21 132.71 5.21 133.98 5.21 134.95 4.24L134.95 4.24Q135.38 3.81 135.55 3.28 135.73 2.74 135.73 2.18Z" transform="translate(4.500204086303711, 39.75675582885742)"></path></g> <!----> <!----> <!----> <!----> <!----> <!----> <!----></g></g></svg> <svg data-gra="path-name-2" fill="#ffffff" y="22.971614837646484" width="149.11019897460938" height="22.971614837646484"><g data-gra="path-name" fill-rule="" class="tp-name" fill="#333333" transform="translate(0,-22.971614837646484)"><g transform="scale(1)"><g><path d="M9.08-13.96L9.08-13.96Q7.95-12.46 8.24-10.58L8.24-10.58Q8.33-9.86 8.35-8.89L8.35-8.89Q8.51-7.41 8.74-5.72 8.97-4.03 9.35-2.47 9.72-0.91 10.45 0.08L10.45 0.08Q11.01 0.91 11.82 0.99 12.62 1.07 13.51 0.54L13.51 0.54Q14.93-0.43 16.03-2.16 17.13-3.89 17.97-5.89 18.8-7.9 19.39-9.72L19.39-9.72Q19.79-10.85 20.14-11.76L20.14-11.76Q20.17-11.79 20.17-11.84L20.17-11.84Q20.25-12 20.36-12.23 20.46-12.46 20.61-12.62 20.76-12.78 21-12.73L21-12.73Q21.14-12.7 21.2-12.58 21.27-12.46 21.28-12.33 21.3-12.19 21.27-12.11L21.27-12.11Q20.95-10.29 20.11-7.76 19.28-5.24 18.03-2.89 16.78-0.54 15.33 0.73L15.33 0.73Q14.88 1.07 14.39 1.37 13.91 1.67 13.21 1.83L13.21 1.83Q11.57 2.18 9.98 1.68 8.38 1.18 7.39-0.03L7.39-0.03Q6.5-1.15 5.98-2.81 5.45-4.46 5.16-6.14 4.86-7.81 4.7-8.97L4.7-8.97Q4.22-7.49 3.06-6.93 1.91-6.36 0.54-6.57-0.83-6.77-2.08-7.57-3.33-8.38-4.03-9.64L-4.03-9.64Q-4.51-10.61-4.5-11.79-4.48-12.97-3.83-14.21-3.17-15.44-1.72-16.57L-1.72-16.57Q-1.32-16.84-0.43-17.2 0.46-17.56 1.61-17.59 2.77-17.62 4-16.95L4-16.95Q3.89-18.8 3.95-21.55 4-24.3 4.32-27.24 4.65-30.19 5.53-32.63 6.42-35.07 8.06-36.31L8.06-36.31Q9.21-37.17 10.73-36.98 12.25-36.79 13.54-35.61L13.54-35.61Q14.88-34.32 15.27-32.54 15.66-30.75 15.46-28.83 15.25-26.91 14.7-25.19 14.15-23.47 13.67-22.29L13.67-22.29Q11.87-17.94 9.08-13.96ZM9.02-32.2L9.02-32.2Q8.51-30.05 8.14-26.9 7.76-23.74 7.67-20.5 7.57-17.27 7.92-14.88L7.92-14.88Q9.32-16.89 10.73-19.81 12.14-22.72 12.89-24.9L12.89-24.9Q12.94-25.19 13.02-25.51L13.02-25.51Q13.37-26.53 13.72-27.78 14.07-29.03 14.18-30.36 14.29-31.69 13.94-32.92 13.59-34.16 12.6-35.13L12.6-35.13Q11.66-35.93 11.05-35.78 10.45-35.64 10.03-34.95 9.61-34.27 9.35-33.5 9.08-32.74 9.02-32.31L9.02-32.31Q9.02-32.25 9.02-32.2ZM4.06-13.64L4.06-13.64Q3.87-15.04 3.38-15.46 2.9-15.87 2.31-15.64 1.72-15.42 1.15-14.82 0.59-14.23 0.19-13.62L0.19-13.62Q-0.46-12.41-0.26-11.23-0.05-10.04 0.62-9.4L0.62-9.4Q1.34-8.75 2.01-8.86 2.69-8.97 3.2-9.51 3.71-10.04 4-10.72 4.3-11.39 4.24-11.87L4.24-11.87Q4.19-12.49 4.16-12.85 4.14-13.21 4.06-13.64ZM27.07-6.42L27.07-6.42Q25.73-6.1 24.28-6.28 22.83-6.47 21.77-7.2 20.71-7.92 20.38-9.21L20.38-9.21Q19.66-12.27 20.44-15.07L20.44-15.07Q20.63-15.93 21.91-16.01L21.91-16.01Q23.15-16.09 23.71-15.76 24.28-15.44 24.41-14.58L24.41-14.58Q24.44-13.45 24.41-11.87L24.41-11.87Q24.41-10.69 24.41-9.57 24.41-8.46 24.63-7.73L24.63-7.73Q24.87-7.14 25.45-7.13 26.02-7.12 26.75-7.41 27.47-7.71 28.06-8.04 28.65-8.38 28.84-8.57L28.84-8.57Q29.7-9.13 30.37-9.8 31.04-10.47 31.64-11.2L31.64-11.2Q31.96-11.55 32.31-11.9L32.31-11.9Q32.44-12.06 32.55-12.25L32.55-12.25Q32.68-12.49 32.87-12.65L32.87-12.65Q32.95-12.76 33.06-12.78 33.17-12.81 33.35-12.73L33.35-12.73Q33.73-12.46 33.14-11.56 32.55-10.66 31.46-9.56 30.37-8.46 29.17-7.57 27.96-6.69 27.07-6.42ZM20.54-18.34L20.54-18.34Q20.14-18.53 20.13-18.76 20.11-18.99 20.22-19.2L20.22-19.2Q20.57-19.98 21.47-20.29 22.37-20.6 23.63-20.38L23.63-20.38Q24.44-20.2 24.6-19.79 24.76-19.39 24.37-18.95 23.98-18.5 23.2-18.23L23.2-18.23Q22.56-18.05 21.91-18.03 21.27-18.02 20.54-18.34ZM54.6-12.76L54.6-12.76Q55.03-12.62 54.99-11.66 54.95-10.69 54.53-9.25 54.11-7.81 53.35-6.27 52.58-4.73 51.5-3.4 50.41-2.07 49.08-1.33 47.75-0.59 46.16-0.78L46.16-0.78Q43.43-1.18 42.38-3.41L42.38-3.41Q41.89-4.43 41.71-5.44 41.52-6.45 41.46-7.44L41.46-7.44Q41.46-7.6 41.46-7.84L41.46-7.84Q41.41-8.27 41.36-8.62L41.36-8.62Q41.14-8.33 40.75-8.04 40.36-7.76 40.07-7.6L40.07-7.6Q38.75-6.85 36.85-6.98L36.85-6.98Q35.26-7.12 34.15-7.75 33.03-8.38 32.66-9.43L32.66-9.43Q32.63-9.53 32.63-9.61L32.63-9.61Q31.58-13.88 35.26-16.7L35.26-16.7Q36.04-17.29 37.44-17.66 38.83-18.02 40.42-17.98 42-17.94 43.18-17.32L43.18-17.32Q43.18-17.32 43.18-17.32L43.18-17.32Q43.18-17.4 43.24-17.51 43.29-17.62 43.48-17.7L43.48-17.7Q43.8-17.83 44.2-17.82 44.61-17.81 45.01-17.58 45.41-17.35 45.68-16.81L45.68-16.81Q45.87-16.33 45.8-14.86 45.73-13.4 45.57-11.49L45.57-11.49Q45.41-9.56 45.32-7.75 45.22-5.94 45.39-4.86L45.39-4.86Q45.55-3.68 46-2.47L46-2.47Q46.16-2.2 46.35-1.95 46.54-1.69 46.97-1.56L46.97-1.56Q47.86-1.37 48.82-2.12 49.79-2.87 50.73-4.22 51.67-5.56 52.41-7.12 53.15-8.67 53.62-10.04 54.09-11.41 54.11-12.25L54.11-12.25Q54.19-12.35 54.19-12.43L54.19-12.43Q54.25-12.6 54.32-12.7 54.38-12.81 54.6-12.76ZM38.83-8.35L38.83-8.35Q39.4-8.67 40.08-9.52 40.77-10.37 41.41-11.45 42.06-12.54 42.38-13.63 42.7-14.72 42.5-15.56 42.3-16.41 41.25-16.78L41.25-16.78Q40.52-17.03 39.8-16.78L39.8-16.78Q38.35-16.17 37.57-14.93 36.79-13.7 36.59-12.26 36.39-10.82 36.66-9.56L36.66-9.56Q36.68-9.43 36.68-9.35L36.68-9.35Q36.79-9.16 36.82-9L36.82-9Q37.17-8.33 37.68-8.15 38.19-7.98 38.83-8.35ZM75.49-12.76L75.49-12.76Q75.44-12.78 75.53-12.8 75.63-12.81 75.75-12.8 75.87-12.78 75.93-12.73 76-12.68 75.99-12.57 75.97-12.46 75.81-12.27L75.81-12.27Q75.49-11.82 73.99-11.16 72.48-10.5 69.37-9.67L69.37-9.67Q70.33-7.68 70.47-5.49 70.6-3.3 69.53-1.64L69.53-1.64Q68.54-0.27 66.76 0.34 64.99 0.94 62.6 0.86L62.6 0.86Q60.16 0.78 58.85-0.21 57.55-1.21 57.63-2.82L57.63-2.82Q57.77-3.79 58.34-4.54 58.92-5.29 59.75-5.94L59.75-5.94Q60.83-6.69 61.98-7.34 63.14-8 64.35-8.65L64.35-8.65Q64.4-8.67 64.51-8.7L64.51-8.7Q65.18-9.08 65.26-9.51 65.34-9.94 64.96-10.55L64.96-10.55Q64.51-11.23 63.93-11.86 63.35-12.49 62.41-13L62.41-13Q61.5-13.48 60.71-13.43 59.91-13.37 59.32-12.98 58.73-12.6 58.38-12.06 58.03-11.52 57.95-11.06L57.95-11.06Q57.77-8.89 57.5-6.61L57.5-6.61Q57.42-5.94 57.39-5.32L57.39-5.32Q57.31-4.51 57.01-3.76L57.01-3.76Q56.75-2.95 55.38-3.01L55.38-3.01Q53.68-2.98 53.55-4.11L53.55-4.11Q53.39-6.58 53.38-10.34 53.36-14.1 53.66-18.38 53.95-22.67 54.7-26.75 55.46-30.83 56.69-33.96 57.93-37.09 59.83-38.54L59.83-38.54Q60.69-39.16 62-39.48 63.3-39.8 64.75-39.75L64.75-39.75Q68.45-39.5 69.64-37.01L69.64-37.01Q70.28-35.48 69.93-33.41 69.58-31.34 68.64-29.02 67.7-26.69 66.44-24.44 65.18-22.18 63.96-20.29 62.73-18.4 61.82-17.19L61.82-17.19Q61.18-16.33 60.51-15.33L60.51-15.33Q60.16-14.85 59.73-14.29L59.73-14.29Q65.93-15.28 68.86-10.58L68.86-10.58Q69.39-10.72 70.12-10.85L70.12-10.85Q71.52-11.15 73.02-11.59 74.52-12.03 75.49-12.76ZM63.54-38.27L63.54-38.27Q62.09-37.17 61.15-34.97 60.21-32.76 59.63-29.97 59.06-27.18 58.73-24.28 58.41-21.38 58.4-18.88 58.38-16.38 58.52-14.77L58.52-14.77Q58.92-15.33 59.32-15.9L59.32-15.9Q60.29-17.21 61.2-18.5L61.2-18.5Q61.96-19.52 63.07-21.36 64.18-23.2 65.33-25.49 66.47-27.77 67.26-30.1 68.05-32.44 68.15-34.43 68.24-36.42 67.27-37.71L67.27-37.71Q66.47-38.67 65.47-38.81 64.48-38.94 63.54-38.27ZM61.85-0.24L61.85-0.24Q63.38 0.08 64.27-0.44 65.15-0.97 65.59-1.99 66.04-3.01 66.17-4.2 66.31-5.4 66.2-6.47 66.09-7.55 65.93-8.14L65.93-8.14Q65.82-8.08 65.53-7.95L65.53-7.95Q64.69-7.57 63.23-6.73 61.77-5.88 60.61-4.65L60.61-4.65Q59.91-3.84 59.71-2.94 59.51-2.04 60-1.3 60.48-0.56 61.85-0.24ZM92.01-12.86L92.01-12.86Q92.38-12.86 92.4-12.7 92.41-12.54 92.29-12.3 92.17-12.06 92.01-11.84L92.01-11.84Q91.98-11.79 91.9-11.76L91.9-11.76Q91.31-10.8 90.37-9.8 89.43-8.81 88.19-7.98 86.96-7.14 85.37-6.71L85.37-6.71Q83.9-6.31 82.19-6.42 80.49-6.53 78.82-7.33 77.16-8.14 75.79-9.8L75.79-9.8Q74.44-11.49 74.66-13.33 74.87-15.17 76.62-16.33L76.62-16.33Q77.56-16.95 78.7-17.31 79.84-17.67 81.32-17.59L81.32-17.59Q81.99-17.59 82.63-17.42 83.28-17.24 83.71-16.78L83.71-16.78Q84.17-16.25 84.02-15.83 83.87-15.42 83.39-15.09L83.39-15.09Q82.71-14.56 81.83-14.19 80.94-13.83 79.81-13.75L79.81-13.75Q79.2-13.72 78.97-13.52 78.74-13.32 78.74-12.94L78.74-12.94Q78.71-11.82 79.26-10.76 79.81-9.69 81.13-8.73L81.13-8.73Q82.39-7.81 83.71-7.59 85.02-7.36 86.29-7.9L86.29-7.9Q87.6-8.49 88.62-9.35 89.64-10.21 90.48-11.12L90.48-11.12Q90.64-11.28 90.8-11.44L90.8-11.44Q90.85-11.49 91.01-11.67 91.17-11.84 91.31-12.06L91.31-12.06Q91.47-12.27 91.63-12.45 91.79-12.62 91.89-12.74 91.98-12.86 92.01-12.86ZM80.78-16.35L80.78-16.35Q80.08-15.98 79.65-15.48 79.22-14.99 79.04-14.26L79.04-14.26Q81.26-14.53 81.83-15.76L81.83-15.76Q81.96-15.9 81.94-16.06 81.91-16.22 81.64-16.38L81.64-16.38Q81.37-16.54 81.16-16.5 80.94-16.46 80.78-16.35ZM110.94-12.68L110.94-12.68Q111.13-12.86 111.42-12.85 111.72-12.84 111.88-12.6L111.88-12.6Q112.07-12.17 111.85-11.57 111.64-10.98 111.37-10.53L111.37-10.53Q111.32-10.42 111.29-10.34L111.29-10.34Q111.13-10.07 111.05-9.78L111.05-9.78Q110.4-8.57 109.49-6.86 108.58-5.16 107.42-3.32 106.27-1.48 104.9 0.16 103.53 1.8 102 2.91 100.47 4.03 98.88 4.24L98.88 4.24Q96.46 4.51 94.95 4.08 93.43 3.65 92.53 2.75 91.63 1.85 91.28 0.67 90.93-0.51 90.84-1.73 90.74-2.95 90.8-4.03L90.8-4.03Q91.17-12.57 92.41-20.97L92.41-20.97Q92.46-21.43 92.52-21.91L92.52-21.91Q92.46-22.4 91.77-22.53L91.77-22.53Q89.78-22.96 87.79-23.28 85.8-23.61 83.86-23.62 81.91-23.63 80-23.12L80-23.12Q79.98-23.12 79.9-23.1L79.9-23.1Q79.04-22.88 78.23-22.6 77.42-22.32 76.81-21.83L76.81-21.83Q76.62-21.65 76.3-21.56 75.97-21.48 75.65-21.73L75.65-21.73Q75.36-21.97 75.52-22.14 75.68-22.32 75.95-22.45L75.95-22.45Q75.97-22.45 76.03-22.48L76.03-22.48Q76.83-22.99 77.8-23.34L77.8-23.34Q80.19-24.22 82.9-24.34 85.62-24.47 88.54-24.09L88.54-24.09Q89.86-23.93 91.25-23.69L91.25-23.69Q91.93-23.58 92.6-23.47L92.6-23.47Q92.73-23.96 92.79-24.47L92.79-24.47Q93-25.65 93.24-26.8L93.24-26.8Q93.38-27.74 93.86-28.57L93.86-28.57Q94.16-29.03 94.72-29.15 95.28-29.27 96.01-29.14L96.01-29.14Q96.73-29 96.92-28.67 97.11-28.33 97.11-27.93L97.11-27.93Q97.11-27.93 97.11-27.9L97.11-27.9Q97.3-26.1 97.11-24.33L97.11-24.33Q97.06-23.87 97.03-23.42L97.03-23.42Q97.03-22.93 97.31-22.69 97.59-22.45 98.26-22.34L98.26-22.34Q100.63-21.97 102.96-21.81 105.3-21.65 107.58-21.97L107.58-21.97Q109.11-22.18 110.46-22.63 111.8-23.07 112.85-23.79L112.85-23.79Q113.57-24.28 114.38-24.71L114.38-24.71Q114.97-24.98 115.59-25.03 116.2-25.08 116.34-24.81 116.47-24.55 115.61-23.85L115.61-23.85Q113.87-22.5 111.53-21.82 109.19-21.14 106.43-20.97L106.43-20.97Q102.59-20.76 98.59-21.3L98.59-21.3Q97.51-21.46 97.22-21.32 96.92-21.19 96.92-20.41L96.92-20.41Q96.33-13.19 95.77-5.99L95.77-5.99Q95.44-2.31 95.91-0.03 96.38 2.26 97.55 2.91 98.72 3.57 100.59 2.36 102.45 1.15 105.03-2.18L105.03-2.18Q106.08-3.57 106.84-4.97 107.61-6.36 108.36-7.76L108.36-7.76Q109.17-9.32 110.11-10.93L110.11-10.93Q110.16-11.12 110.4-11.57L110.4-11.57Q110.56-11.92 110.7-12.23 110.83-12.54 110.94-12.68ZM127.29-12.86L127.29-12.86Q127.67-12.86 127.68-12.7 127.7-12.54 127.58-12.3 127.46-12.06 127.29-11.84L127.29-11.84Q127.27-11.79 127.19-11.76L127.19-11.76Q126.6-10.8 125.66-9.8 124.72-8.81 123.48-7.98 122.25-7.14 120.66-6.71L120.66-6.71Q119.18-6.31 117.48-6.42 115.77-6.53 114.11-7.33 112.44-8.14 111.07-9.8L111.07-9.8Q109.73-11.49 109.95-13.33 110.16-15.17 111.91-16.33L111.91-16.33Q112.85-16.95 113.99-17.31 115.13-17.67 116.61-17.59L116.61-17.59Q117.28-17.59 117.92-17.42 118.57-17.24 119-16.78L119-16.78Q119.45-16.25 119.31-15.83 119.16-15.42 118.67-15.09L118.67-15.09Q118-14.56 117.12-14.19 116.23-13.83 115.1-13.75L115.1-13.75Q114.48-13.72 114.26-13.52 114.03-13.32 114.03-12.94L114.03-12.94Q114-11.82 114.55-10.76 115.1-9.69 116.42-8.73L116.42-8.73Q117.68-7.81 119-7.59 120.31-7.36 121.57-7.9L121.57-7.9Q122.89-8.49 123.91-9.35 124.93-10.21 125.76-11.12L125.76-11.12Q125.93-11.28 126.09-11.44L126.09-11.44Q126.14-11.49 126.3-11.67 126.46-11.84 126.6-12.06L126.6-12.06Q126.76-12.27 126.92-12.45 127.08-12.62 127.17-12.74 127.27-12.86 127.29-12.86ZM116.07-16.35L116.07-16.35Q115.37-15.98 114.94-15.48 114.51-14.99 114.32-14.26L114.32-14.26Q116.55-14.53 117.12-15.76L117.12-15.76Q117.25-15.9 117.22-16.06 117.2-16.22 116.93-16.38L116.93-16.38Q116.66-16.54 116.45-16.5 116.23-16.46 116.07-16.35ZM143.76-12.73L143.76-12.73Q143.76-12.73 143.85-12.73 143.95-12.73 144.11-12.72 144.27-12.7 144.39-12.66 144.51-12.62 144.58-12.55 144.64-12.49 144.58-12.39 144.51-12.3 144.27-12.14L144.27-12.14Q142.58-11.09 140.75-9.91L140.75-9.91Q138.49-8.38 136.37-7.12L136.37-7.12Q135.89-6.82 135.92-6.51 135.94-6.2 136.26-5.8L136.26-5.8Q137.18-4.65 138.08-3.14 138.98-1.64 139.46-0.07 139.94 1.5 139.69 2.85 139.43 4.19 138.06 5.08L138.06 5.08Q136.56 6.02 134.29 6.16 132.02 6.31 129.63 5.61L129.63 5.61Q127.56 4.94 126.74 3.81 125.93 2.69 126.02 1.45 126.11 0.21 126.7-0.81L126.7-0.81Q128.18-3.33 130.92-5.18L130.92-5.18Q131.43-5.56 131.44-5.95 131.46-6.34 130.95-6.85L130.95-6.85Q129.82-8.08 128.52-9.72 127.21-11.36 126.52-12.65L126.52-12.65Q125.87-14.02 126.4-15.15 126.92-16.27 128.36-16.88 129.79-17.48 131.89-17.29L131.89-17.29Q131.89-17.29 131.91-17.29L131.91-17.29Q132.21-17.27 132.5-17.21L132.5-17.21Q132.59-17.19 132.67-17.16L132.67-17.16Q133.23-17.05 133.7-16.85 134.17-16.65 134.17-16.25L134.17-16.25Q134.17-15.76 133.69-15.7 133.2-15.63 132.59-15.82L132.59-15.82Q131.94-15.98 131.66-15.86 131.38-15.74 131.14-15.5L131.14-15.5Q130.33-14.53 130.73-13.28 131.14-12.03 132.17-10.74 133.2-9.45 134.28-8.33L134.28-8.33Q134.65-7.92 134.98-7.6L134.98-7.6Q136.67-8.73 139.19-10.31 141.72-11.9 143.76-12.73ZM135.73 2.18L135.73 2.18Q135.73 0.54 134.87-1.13 134.01-2.79 132.69-4.57L132.69-4.57Q130.22-2.55 129.39-0.78 128.56 0.99 128.91 2.35 129.26 3.71 130.34 4.46 131.43 5.21 132.71 5.21 133.98 5.21 134.95 4.24L134.95 4.24Q135.38 3.81 135.55 3.28 135.73 2.74 135.73 2.18Z" transform="translate(4.500204086303711, 39.75675582885742)"></path></g> <!----> <!----> <!----> <!----> <!----> <!----> <!----></g></g></svg></g></g> <!----></g></g><mask id="320e1415-aff7-4791-bb83-2253167736bf"><rect data-gra="graph-name" x="0" y="27.971614837646484" width="169.11019897460938" height="27.971614837646484" fill="white"></rect> <g transform="translate(10,5)" fill="black"><svg data-gra="path-name-1" width="149.11019897460938" height="22.971614837646484" fill="white"><g data-gra="path-name" fill-rule="" class="tp-name" transform="translate(0,0)"><g transform="scale(1)"><g><path d="M9.08-13.96L9.08-13.96Q7.95-12.46 8.24-10.58L8.24-10.58Q8.33-9.86 8.35-8.89L8.35-8.89Q8.51-7.41 8.74-5.72 8.97-4.03 9.35-2.47 9.72-0.91 10.45 0.08L10.45 0.08Q11.01 0.91 11.82 0.99 12.62 1.07 13.51 0.54L13.51 0.54Q14.93-0.43 16.03-2.16 17.13-3.89 17.97-5.89 18.8-7.9 19.39-9.72L19.39-9.72Q19.79-10.85 20.14-11.76L20.14-11.76Q20.17-11.79 20.17-11.84L20.17-11.84Q20.25-12 20.36-12.23 20.46-12.46 20.61-12.62 20.76-12.78 21-12.73L21-12.73Q21.14-12.7 21.2-12.58 21.27-12.46 21.28-12.33 21.3-12.19 21.27-12.11L21.27-12.11Q20.95-10.29 20.11-7.76 19.28-5.24 18.03-2.89 16.78-0.54 15.33 0.73L15.33 0.73Q14.88 1.07 14.39 1.37 13.91 1.67 13.21 1.83L13.21 1.83Q11.57 2.18 9.98 1.68 8.38 1.18 7.39-0.03L7.39-0.03Q6.5-1.15 5.98-2.81 5.45-4.46 5.16-6.14 4.86-7.81 4.7-8.97L4.7-8.97Q4.22-7.49 3.06-6.93 1.91-6.36 0.54-6.57-0.83-6.77-2.08-7.57-3.33-8.38-4.03-9.64L-4.03-9.64Q-4.51-10.61-4.5-11.79-4.48-12.97-3.83-14.21-3.17-15.44-1.72-16.57L-1.72-16.57Q-1.32-16.84-0.43-17.2 0.46-17.56 1.61-17.59 2.77-17.62 4-16.95L4-16.95Q3.89-18.8 3.95-21.55 4-24.3 4.32-27.24 4.65-30.19 5.53-32.63 6.42-35.07 8.06-36.31L8.06-36.31Q9.21-37.17 10.73-36.98 12.25-36.79 13.54-35.61L13.54-35.61Q14.88-34.32 15.27-32.54 15.66-30.75 15.46-28.83 15.25-26.91 14.7-25.19 14.15-23.47 13.67-22.29L13.67-22.29Q11.87-17.94 9.08-13.96ZM9.02-32.2L9.02-32.2Q8.51-30.05 8.14-26.9 7.76-23.74 7.67-20.5 7.57-17.27 7.92-14.88L7.92-14.88Q9.32-16.89 10.73-19.81 12.14-22.72 12.89-24.9L12.89-24.9Q12.94-25.19 13.02-25.51L13.02-25.51Q13.37-26.53 13.72-27.78 14.07-29.03 14.18-30.36 14.29-31.69 13.94-32.92 13.59-34.16 12.6-35.13L12.6-35.13Q11.66-35.93 11.05-35.78 10.45-35.64 10.03-34.95 9.61-34.27 9.35-33.5 9.08-32.74 9.02-32.31L9.02-32.31Q9.02-32.25 9.02-32.2ZM4.06-13.64L4.06-13.64Q3.87-15.04 3.38-15.46 2.9-15.87 2.31-15.64 1.72-15.42 1.15-14.82 0.59-14.23 0.19-13.62L0.19-13.62Q-0.46-12.41-0.26-11.23-0.05-10.04 0.62-9.4L0.62-9.4Q1.34-8.75 2.01-8.86 2.69-8.97 3.2-9.51 3.71-10.04 4-10.72 4.3-11.39 4.24-11.87L4.24-11.87Q4.19-12.49 4.16-12.85 4.14-13.21 4.06-13.64ZM27.07-6.42L27.07-6.42Q25.73-6.1 24.28-6.28 22.83-6.47 21.77-7.2 20.71-7.92 20.38-9.21L20.38-9.21Q19.66-12.27 20.44-15.07L20.44-15.07Q20.63-15.93 21.91-16.01L21.91-16.01Q23.15-16.09 23.71-15.76 24.28-15.44 24.41-14.58L24.41-14.58Q24.44-13.45 24.41-11.87L24.41-11.87Q24.41-10.69 24.41-9.57 24.41-8.46 24.63-7.73L24.63-7.73Q24.87-7.14 25.45-7.13 26.02-7.12 26.75-7.41 27.47-7.71 28.06-8.04 28.65-8.38 28.84-8.57L28.84-8.57Q29.7-9.13 30.37-9.8 31.04-10.47 31.64-11.2L31.64-11.2Q31.96-11.55 32.31-11.9L32.31-11.9Q32.44-12.06 32.55-12.25L32.55-12.25Q32.68-12.49 32.87-12.65L32.87-12.65Q32.95-12.76 33.06-12.78 33.17-12.81 33.35-12.73L33.35-12.73Q33.73-12.46 33.14-11.56 32.55-10.66 31.46-9.56 30.37-8.46 29.17-7.57 27.96-6.69 27.07-6.42ZM20.54-18.34L20.54-18.34Q20.14-18.53 20.13-18.76 20.11-18.99 20.22-19.2L20.22-19.2Q20.57-19.98 21.47-20.29 22.37-20.6 23.63-20.38L23.63-20.38Q24.44-20.2 24.6-19.79 24.76-19.39 24.37-18.95 23.98-18.5 23.2-18.23L23.2-18.23Q22.56-18.05 21.91-18.03 21.27-18.02 20.54-18.34ZM54.6-12.76L54.6-12.76Q55.03-12.62 54.99-11.66 54.95-10.69 54.53-9.25 54.11-7.81 53.35-6.27 52.58-4.73 51.5-3.4 50.41-2.07 49.08-1.33 47.75-0.59 46.16-0.78L46.16-0.78Q43.43-1.18 42.38-3.41L42.38-3.41Q41.89-4.43 41.71-5.44 41.52-6.45 41.46-7.44L41.46-7.44Q41.46-7.6 41.46-7.84L41.46-7.84Q41.41-8.27 41.36-8.62L41.36-8.62Q41.14-8.33 40.75-8.04 40.36-7.76 40.07-7.6L40.07-7.6Q38.75-6.85 36.85-6.98L36.85-6.98Q35.26-7.12 34.15-7.75 33.03-8.38 32.66-9.43L32.66-9.43Q32.63-9.53 32.63-9.61L32.63-9.61Q31.58-13.88 35.26-16.7L35.26-16.7Q36.04-17.29 37.44-17.66 38.83-18.02 40.42-17.98 42-17.94 43.18-17.32L43.18-17.32Q43.18-17.32 43.18-17.32L43.18-17.32Q43.18-17.4 43.24-17.51 43.29-17.62 43.48-17.7L43.48-17.7Q43.8-17.83 44.2-17.82 44.61-17.81 45.01-17.58 45.41-17.35 45.68-16.81L45.68-16.81Q45.87-16.33 45.8-14.86 45.73-13.4 45.57-11.49L45.57-11.49Q45.41-9.56 45.32-7.75 45.22-5.94 45.39-4.86L45.39-4.86Q45.55-3.68 46-2.47L46-2.47Q46.16-2.2 46.35-1.95 46.54-1.69 46.97-1.56L46.97-1.56Q47.86-1.37 48.82-2.12 49.79-2.87 50.73-4.22 51.67-5.56 52.41-7.12 53.15-8.67 53.62-10.04 54.09-11.41 54.11-12.25L54.11-12.25Q54.19-12.35 54.19-12.43L54.19-12.43Q54.25-12.6 54.32-12.7 54.38-12.81 54.6-12.76ZM38.83-8.35L38.83-8.35Q39.4-8.67 40.08-9.52 40.77-10.37 41.41-11.45 42.06-12.54 42.38-13.63 42.7-14.72 42.5-15.56 42.3-16.41 41.25-16.78L41.25-16.78Q40.52-17.03 39.8-16.78L39.8-16.78Q38.35-16.17 37.57-14.93 36.79-13.7 36.59-12.26 36.39-10.82 36.66-9.56L36.66-9.56Q36.68-9.43 36.68-9.35L36.68-9.35Q36.79-9.16 36.82-9L36.82-9Q37.17-8.33 37.68-8.15 38.19-7.98 38.83-8.35ZM75.49-12.76L75.49-12.76Q75.44-12.78 75.53-12.8 75.63-12.81 75.75-12.8 75.87-12.78 75.93-12.73 76-12.68 75.99-12.57 75.97-12.46 75.81-12.27L75.81-12.27Q75.49-11.82 73.99-11.16 72.48-10.5 69.37-9.67L69.37-9.67Q70.33-7.68 70.47-5.49 70.6-3.3 69.53-1.64L69.53-1.64Q68.54-0.27 66.76 0.34 64.99 0.94 62.6 0.86L62.6 0.86Q60.16 0.78 58.85-0.21 57.55-1.21 57.63-2.82L57.63-2.82Q57.77-3.79 58.34-4.54 58.92-5.29 59.75-5.94L59.75-5.94Q60.83-6.69 61.98-7.34 63.14-8 64.35-8.65L64.35-8.65Q64.4-8.67 64.51-8.7L64.51-8.7Q65.18-9.08 65.26-9.51 65.34-9.94 64.96-10.55L64.96-10.55Q64.51-11.23 63.93-11.86 63.35-12.49 62.41-13L62.41-13Q61.5-13.48 60.71-13.43 59.91-13.37 59.32-12.98 58.73-12.6 58.38-12.06 58.03-11.52 57.95-11.06L57.95-11.06Q57.77-8.89 57.5-6.61L57.5-6.61Q57.42-5.94 57.39-5.32L57.39-5.32Q57.31-4.51 57.01-3.76L57.01-3.76Q56.75-2.95 55.38-3.01L55.38-3.01Q53.68-2.98 53.55-4.11L53.55-4.11Q53.39-6.58 53.38-10.34 53.36-14.1 53.66-18.38 53.95-22.67 54.7-26.75 55.46-30.83 56.69-33.96 57.93-37.09 59.83-38.54L59.83-38.54Q60.69-39.16 62-39.48 63.3-39.8 64.75-39.75L64.75-39.75Q68.45-39.5 69.64-37.01L69.64-37.01Q70.28-35.48 69.93-33.41 69.58-31.34 68.64-29.02 67.7-26.69 66.44-24.44 65.18-22.18 63.96-20.29 62.73-18.4 61.82-17.19L61.82-17.19Q61.18-16.33 60.51-15.33L60.51-15.33Q60.16-14.85 59.73-14.29L59.73-14.29Q65.93-15.28 68.86-10.58L68.86-10.58Q69.39-10.72 70.12-10.85L70.12-10.85Q71.52-11.15 73.02-11.59 74.52-12.03 75.49-12.76ZM63.54-38.27L63.54-38.27Q62.09-37.17 61.15-34.97 60.21-32.76 59.63-29.97 59.06-27.18 58.73-24.28 58.41-21.38 58.4-18.88 58.38-16.38 58.52-14.77L58.52-14.77Q58.92-15.33 59.32-15.9L59.32-15.9Q60.29-17.21 61.2-18.5L61.2-18.5Q61.96-19.52 63.07-21.36 64.18-23.2 65.33-25.49 66.47-27.77 67.26-30.1 68.05-32.44 68.15-34.43 68.24-36.42 67.27-37.71L67.27-37.71Q66.47-38.67 65.47-38.81 64.48-38.94 63.54-38.27ZM61.85-0.24L61.85-0.24Q63.38 0.08 64.27-0.44 65.15-0.97 65.59-1.99 66.04-3.01 66.17-4.2 66.31-5.4 66.2-6.47 66.09-7.55 65.93-8.14L65.93-8.14Q65.82-8.08 65.53-7.95L65.53-7.95Q64.69-7.57 63.23-6.73 61.77-5.88 60.61-4.65L60.61-4.65Q59.91-3.84 59.71-2.94 59.51-2.04 60-1.3 60.48-0.56 61.85-0.24ZM92.01-12.86L92.01-12.86Q92.38-12.86 92.4-12.7 92.41-12.54 92.29-12.3 92.17-12.06 92.01-11.84L92.01-11.84Q91.98-11.79 91.9-11.76L91.9-11.76Q91.31-10.8 90.37-9.8 89.43-8.81 88.19-7.98 86.96-7.14 85.37-6.71L85.37-6.71Q83.9-6.31 82.19-6.42 80.49-6.53 78.82-7.33 77.16-8.14 75.79-9.8L75.79-9.8Q74.44-11.49 74.66-13.33 74.87-15.17 76.62-16.33L76.62-16.33Q77.56-16.95 78.7-17.31 79.84-17.67 81.32-17.59L81.32-17.59Q81.99-17.59 82.63-17.42 83.28-17.24 83.71-16.78L83.71-16.78Q84.17-16.25 84.02-15.83 83.87-15.42 83.39-15.09L83.39-15.09Q82.71-14.56 81.83-14.19 80.94-13.83 79.81-13.75L79.81-13.75Q79.2-13.72 78.97-13.52 78.74-13.32 78.74-12.94L78.74-12.94Q78.71-11.82 79.26-10.76 79.81-9.69 81.13-8.73L81.13-8.73Q82.39-7.81 83.71-7.59 85.02-7.36 86.29-7.9L86.29-7.9Q87.6-8.49 88.62-9.35 89.64-10.21 90.48-11.12L90.48-11.12Q90.64-11.28 90.8-11.44L90.8-11.44Q90.85-11.49 91.01-11.67 91.17-11.84 91.31-12.06L91.31-12.06Q91.47-12.27 91.63-12.45 91.79-12.62 91.89-12.74 91.98-12.86 92.01-12.86ZM80.78-16.35L80.78-16.35Q80.08-15.98 79.65-15.48 79.22-14.99 79.04-14.26L79.04-14.26Q81.26-14.53 81.83-15.76L81.83-15.76Q81.96-15.9 81.94-16.06 81.91-16.22 81.64-16.38L81.64-16.38Q81.37-16.54 81.16-16.5 80.94-16.46 80.78-16.35ZM110.94-12.68L110.94-12.68Q111.13-12.86 111.42-12.85 111.72-12.84 111.88-12.6L111.88-12.6Q112.07-12.17 111.85-11.57 111.64-10.98 111.37-10.53L111.37-10.53Q111.32-10.42 111.29-10.34L111.29-10.34Q111.13-10.07 111.05-9.78L111.05-9.78Q110.4-8.57 109.49-6.86 108.58-5.16 107.42-3.32 106.27-1.48 104.9 0.16 103.53 1.8 102 2.91 100.47 4.03 98.88 4.24L98.88 4.24Q96.46 4.51 94.95 4.08 93.43 3.65 92.53 2.75 91.63 1.85 91.28 0.67 90.93-0.51 90.84-1.73 90.74-2.95 90.8-4.03L90.8-4.03Q91.17-12.57 92.41-20.97L92.41-20.97Q92.46-21.43 92.52-21.91L92.52-21.91Q92.46-22.4 91.77-22.53L91.77-22.53Q89.78-22.96 87.79-23.28 85.8-23.61 83.86-23.62 81.91-23.63 80-23.12L80-23.12Q79.98-23.12 79.9-23.1L79.9-23.1Q79.04-22.88 78.23-22.6 77.42-22.32 76.81-21.83L76.81-21.83Q76.62-21.65 76.3-21.56 75.97-21.48 75.65-21.73L75.65-21.73Q75.36-21.97 75.52-22.14 75.68-22.32 75.95-22.45L75.95-22.45Q75.97-22.45 76.03-22.48L76.03-22.48Q76.83-22.99 77.8-23.34L77.8-23.34Q80.19-24.22 82.9-24.34 85.62-24.47 88.54-24.09L88.54-24.09Q89.86-23.93 91.25-23.69L91.25-23.69Q91.93-23.58 92.6-23.47L92.6-23.47Q92.73-23.96 92.79-24.47L92.79-24.47Q93-25.65 93.24-26.8L93.24-26.8Q93.38-27.74 93.86-28.57L93.86-28.57Q94.16-29.03 94.72-29.15 95.28-29.27 96.01-29.14L96.01-29.14Q96.73-29 96.92-28.67 97.11-28.33 97.11-27.93L97.11-27.93Q97.11-27.93 97.11-27.9L97.11-27.9Q97.3-26.1 97.11-24.33L97.11-24.33Q97.06-23.87 97.03-23.42L97.03-23.42Q97.03-22.93 97.31-22.69 97.59-22.45 98.26-22.34L98.26-22.34Q100.63-21.97 102.96-21.81 105.3-21.65 107.58-21.97L107.58-21.97Q109.11-22.18 110.46-22.63 111.8-23.07 112.85-23.79L112.85-23.79Q113.57-24.28 114.38-24.71L114.38-24.71Q114.97-24.98 115.59-25.03 116.2-25.08 116.34-24.81 116.47-24.55 115.61-23.85L115.61-23.85Q113.87-22.5 111.53-21.82 109.19-21.14 106.43-20.97L106.43-20.97Q102.59-20.76 98.59-21.3L98.59-21.3Q97.51-21.46 97.22-21.32 96.92-21.19 96.92-20.41L96.92-20.41Q96.33-13.19 95.77-5.99L95.77-5.99Q95.44-2.31 95.91-0.03 96.38 2.26 97.55 2.91 98.72 3.57 100.59 2.36 102.45 1.15 105.03-2.18L105.03-2.18Q106.08-3.57 106.84-4.97 107.61-6.36 108.36-7.76L108.36-7.76Q109.17-9.32 110.11-10.93L110.11-10.93Q110.16-11.12 110.4-11.57L110.4-11.57Q110.56-11.92 110.7-12.23 110.83-12.54 110.94-12.68ZM127.29-12.86L127.29-12.86Q127.67-12.86 127.68-12.7 127.7-12.54 127.58-12.3 127.46-12.06 127.29-11.84L127.29-11.84Q127.27-11.79 127.19-11.76L127.19-11.76Q126.6-10.8 125.66-9.8 124.72-8.81 123.48-7.98 122.25-7.14 120.66-6.71L120.66-6.71Q119.18-6.31 117.48-6.42 115.77-6.53 114.11-7.33 112.44-8.14 111.07-9.8L111.07-9.8Q109.73-11.49 109.95-13.33 110.16-15.17 111.91-16.33L111.91-16.33Q112.85-16.95 113.99-17.31 115.13-17.67 116.61-17.59L116.61-17.59Q117.28-17.59 117.92-17.42 118.57-17.24 119-16.78L119-16.78Q119.45-16.25 119.31-15.83 119.16-15.42 118.67-15.09L118.67-15.09Q118-14.56 117.12-14.19 116.23-13.83 115.1-13.75L115.1-13.75Q114.48-13.72 114.26-13.52 114.03-13.32 114.03-12.94L114.03-12.94Q114-11.82 114.55-10.76 115.1-9.69 116.42-8.73L116.42-8.73Q117.68-7.81 119-7.59 120.31-7.36 121.57-7.9L121.57-7.9Q122.89-8.49 123.91-9.35 124.93-10.21 125.76-11.12L125.76-11.12Q125.93-11.28 126.09-11.44L126.09-11.44Q126.14-11.49 126.3-11.67 126.46-11.84 126.6-12.06L126.6-12.06Q126.76-12.27 126.92-12.45 127.08-12.62 127.17-12.74 127.27-12.86 127.29-12.86ZM116.07-16.35L116.07-16.35Q115.37-15.98 114.94-15.48 114.51-14.99 114.32-14.26L114.32-14.26Q116.55-14.53 117.12-15.76L117.12-15.76Q117.25-15.9 117.22-16.06 117.2-16.22 116.93-16.38L116.93-16.38Q116.66-16.54 116.45-16.5 116.23-16.46 116.07-16.35ZM143.76-12.73L143.76-12.73Q143.76-12.73 143.85-12.73 143.95-12.73 144.11-12.72 144.27-12.7 144.39-12.66 144.51-12.62 144.58-12.55 144.64-12.49 144.58-12.39 144.51-12.3 144.27-12.14L144.27-12.14Q142.58-11.09 140.75-9.91L140.75-9.91Q138.49-8.38 136.37-7.12L136.37-7.12Q135.89-6.82 135.92-6.51 135.94-6.2 136.26-5.8L136.26-5.8Q137.18-4.65 138.08-3.14 138.98-1.64 139.46-0.07 139.94 1.5 139.69 2.85 139.43 4.19 138.06 5.08L138.06 5.08Q136.56 6.02 134.29 6.16 132.02 6.31 129.63 5.61L129.63 5.61Q127.56 4.94 126.74 3.81 125.93 2.69 126.02 1.45 126.11 0.21 126.7-0.81L126.7-0.81Q128.18-3.33 130.92-5.18L130.92-5.18Q131.43-5.56 131.44-5.95 131.46-6.34 130.95-6.85L130.95-6.85Q129.82-8.08 128.52-9.72 127.21-11.36 126.52-12.65L126.52-12.65Q125.87-14.02 126.4-15.15 126.92-16.27 128.36-16.88 129.79-17.48 131.89-17.29L131.89-17.29Q131.89-17.29 131.91-17.29L131.91-17.29Q132.21-17.27 132.5-17.21L132.5-17.21Q132.59-17.19 132.67-17.16L132.67-17.16Q133.23-17.05 133.7-16.85 134.17-16.65 134.17-16.25L134.17-16.25Q134.17-15.76 133.69-15.7 133.2-15.63 132.59-15.82L132.59-15.82Q131.94-15.98 131.66-15.86 131.38-15.74 131.14-15.5L131.14-15.5Q130.33-14.53 130.73-13.28 131.14-12.03 132.17-10.74 133.2-9.45 134.28-8.33L134.28-8.33Q134.65-7.92 134.98-7.6L134.98-7.6Q136.67-8.73 139.19-10.31 141.72-11.9 143.76-12.73ZM135.73 2.18L135.73 2.18Q135.73 0.54 134.87-1.13 134.01-2.79 132.69-4.57L132.69-4.57Q130.22-2.55 129.39-0.78 128.56 0.99 128.91 2.35 129.26 3.71 130.34 4.46 131.43 5.21 132.71 5.21 133.98 5.21 134.95 4.24L134.95 4.24Q135.38 3.81 135.55 3.28 135.73 2.74 135.73 2.18Z" transform="translate(4.500204086303711, 39.75675582885742)"></path></g>       </g></g></svg> <svg data-gra="path-name-2" y="22.971614837646484" width="149.11019897460938" height="22.971614837646484"><g data-gra="path-name" fill-rule="" class="tp-name" transform="translate(0,-22.971614837646484)"><g transform="scale(1)"><g><path d="M9.08-13.96L9.08-13.96Q7.95-12.46 8.24-10.58L8.24-10.58Q8.33-9.86 8.35-8.89L8.35-8.89Q8.51-7.41 8.74-5.72 8.97-4.03 9.35-2.47 9.72-0.91 10.45 0.08L10.45 0.08Q11.01 0.91 11.82 0.99 12.62 1.07 13.51 0.54L13.51 0.54Q14.93-0.43 16.03-2.16 17.13-3.89 17.97-5.89 18.8-7.9 19.39-9.72L19.39-9.72Q19.79-10.85 20.14-11.76L20.14-11.76Q20.17-11.79 20.17-11.84L20.17-11.84Q20.25-12 20.36-12.23 20.46-12.46 20.61-12.62 20.76-12.78 21-12.73L21-12.73Q21.14-12.7 21.2-12.58 21.27-12.46 21.28-12.33 21.3-12.19 21.27-12.11L21.27-12.11Q20.95-10.29 20.11-7.76 19.28-5.24 18.03-2.89 16.78-0.54 15.33 0.73L15.33 0.73Q14.88 1.07 14.39 1.37 13.91 1.67 13.21 1.83L13.21 1.83Q11.57 2.18 9.98 1.68 8.38 1.18 7.39-0.03L7.39-0.03Q6.5-1.15 5.98-2.81 5.45-4.46 5.16-6.14 4.86-7.81 4.7-8.97L4.7-8.97Q4.22-7.49 3.06-6.93 1.91-6.36 0.54-6.57-0.83-6.77-2.08-7.57-3.33-8.38-4.03-9.64L-4.03-9.64Q-4.51-10.61-4.5-11.79-4.48-12.97-3.83-14.21-3.17-15.44-1.72-16.57L-1.72-16.57Q-1.32-16.84-0.43-17.2 0.46-17.56 1.61-17.59 2.77-17.62 4-16.95L4-16.95Q3.89-18.8 3.95-21.55 4-24.3 4.32-27.24 4.65-30.19 5.53-32.63 6.42-35.07 8.06-36.31L8.06-36.31Q9.21-37.17 10.73-36.98 12.25-36.79 13.54-35.61L13.54-35.61Q14.88-34.32 15.27-32.54 15.66-30.75 15.46-28.83 15.25-26.91 14.7-25.19 14.15-23.47 13.67-22.29L13.67-22.29Q11.87-17.94 9.08-13.96ZM9.02-32.2L9.02-32.2Q8.51-30.05 8.14-26.9 7.76-23.74 7.67-20.5 7.57-17.27 7.92-14.88L7.92-14.88Q9.32-16.89 10.73-19.81 12.14-22.72 12.89-24.9L12.89-24.9Q12.94-25.19 13.02-25.51L13.02-25.51Q13.37-26.53 13.72-27.78 14.07-29.03 14.18-30.36 14.29-31.69 13.94-32.92 13.59-34.16 12.6-35.13L12.6-35.13Q11.66-35.93 11.05-35.78 10.45-35.64 10.03-34.95 9.61-34.27 9.35-33.5 9.08-32.74 9.02-32.31L9.02-32.31Q9.02-32.25 9.02-32.2ZM4.06-13.64L4.06-13.64Q3.87-15.04 3.38-15.46 2.9-15.87 2.31-15.64 1.72-15.42 1.15-14.82 0.59-14.23 0.19-13.62L0.19-13.62Q-0.46-12.41-0.26-11.23-0.05-10.04 0.62-9.4L0.62-9.4Q1.34-8.75 2.01-8.86 2.69-8.97 3.2-9.51 3.71-10.04 4-10.72 4.3-11.39 4.24-11.87L4.24-11.87Q4.19-12.49 4.16-12.85 4.14-13.21 4.06-13.64ZM27.07-6.42L27.07-6.42Q25.73-6.1 24.28-6.28 22.83-6.47 21.77-7.2 20.71-7.92 20.38-9.21L20.38-9.21Q19.66-12.27 20.44-15.07L20.44-15.07Q20.63-15.93 21.91-16.01L21.91-16.01Q23.15-16.09 23.71-15.76 24.28-15.44 24.41-14.58L24.41-14.58Q24.44-13.45 24.41-11.87L24.41-11.87Q24.41-10.69 24.41-9.57 24.41-8.46 24.63-7.73L24.63-7.73Q24.87-7.14 25.45-7.13 26.02-7.12 26.75-7.41 27.47-7.71 28.06-8.04 28.65-8.38 28.84-8.57L28.84-8.57Q29.7-9.13 30.37-9.8 31.04-10.47 31.64-11.2L31.64-11.2Q31.96-11.55 32.31-11.9L32.31-11.9Q32.44-12.06 32.55-12.25L32.55-12.25Q32.68-12.49 32.87-12.65L32.87-12.65Q32.95-12.76 33.06-12.78 33.17-12.81 33.35-12.73L33.35-12.73Q33.73-12.46 33.14-11.56 32.55-10.66 31.46-9.56 30.37-8.46 29.17-7.57 27.96-6.69 27.07-6.42ZM20.54-18.34L20.54-18.34Q20.14-18.53 20.13-18.76 20.11-18.99 20.22-19.2L20.22-19.2Q20.57-19.98 21.47-20.29 22.37-20.6 23.63-20.38L23.63-20.38Q24.44-20.2 24.6-19.79 24.76-19.39 24.37-18.95 23.98-18.5 23.2-18.23L23.2-18.23Q22.56-18.05 21.91-18.03 21.27-18.02 20.54-18.34ZM54.6-12.76L54.6-12.76Q55.03-12.62 54.99-11.66 54.95-10.69 54.53-9.25 54.11-7.81 53.35-6.27 52.58-4.73 51.5-3.4 50.41-2.07 49.08-1.33 47.75-0.59 46.16-0.78L46.16-0.78Q43.43-1.18 42.38-3.41L42.38-3.41Q41.89-4.43 41.71-5.44 41.52-6.45 41.46-7.44L41.46-7.44Q41.46-7.6 41.46-7.84L41.46-7.84Q41.41-8.27 41.36-8.62L41.36-8.62Q41.14-8.33 40.75-8.04 40.36-7.76 40.07-7.6L40.07-7.6Q38.75-6.85 36.85-6.98L36.85-6.98Q35.26-7.12 34.15-7.75 33.03-8.38 32.66-9.43L32.66-9.43Q32.63-9.53 32.63-9.61L32.63-9.61Q31.58-13.88 35.26-16.7L35.26-16.7Q36.04-17.29 37.44-17.66 38.83-18.02 40.42-17.98 42-17.94 43.18-17.32L43.18-17.32Q43.18-17.32 43.18-17.32L43.18-17.32Q43.18-17.4 43.24-17.51 43.29-17.62 43.48-17.7L43.48-17.7Q43.8-17.83 44.2-17.82 44.61-17.81 45.01-17.58 45.41-17.35 45.68-16.81L45.68-16.81Q45.87-16.33 45.8-14.86 45.73-13.4 45.57-11.49L45.57-11.49Q45.41-9.56 45.32-7.75 45.22-5.94 45.39-4.86L45.39-4.86Q45.55-3.68 46-2.47L46-2.47Q46.16-2.2 46.35-1.95 46.54-1.69 46.97-1.56L46.97-1.56Q47.86-1.37 48.82-2.12 49.79-2.87 50.73-4.22 51.67-5.56 52.41-7.12 53.15-8.67 53.62-10.04 54.09-11.41 54.11-12.25L54.11-12.25Q54.19-12.35 54.19-12.43L54.19-12.43Q54.25-12.6 54.32-12.7 54.38-12.81 54.6-12.76ZM38.83-8.35L38.83-8.35Q39.4-8.67 40.08-9.52 40.77-10.37 41.41-11.45 42.06-12.54 42.38-13.63 42.7-14.72 42.5-15.56 42.3-16.41 41.25-16.78L41.25-16.78Q40.52-17.03 39.8-16.78L39.8-16.78Q38.35-16.17 37.57-14.93 36.79-13.7 36.59-12.26 36.39-10.82 36.66-9.56L36.66-9.56Q36.68-9.43 36.68-9.35L36.68-9.35Q36.79-9.16 36.82-9L36.82-9Q37.17-8.33 37.68-8.15 38.19-7.98 38.83-8.35ZM75.49-12.76L75.49-12.76Q75.44-12.78 75.53-12.8 75.63-12.81 75.75-12.8 75.87-12.78 75.93-12.73 76-12.68 75.99-12.57 75.97-12.46 75.81-12.27L75.81-12.27Q75.49-11.82 73.99-11.16 72.48-10.5 69.37-9.67L69.37-9.67Q70.33-7.68 70.47-5.49 70.6-3.3 69.53-1.64L69.53-1.64Q68.54-0.27 66.76 0.34 64.99 0.94 62.6 0.86L62.6 0.86Q60.16 0.78 58.85-0.21 57.55-1.21 57.63-2.82L57.63-2.82Q57.77-3.79 58.34-4.54 58.92-5.29 59.75-5.94L59.75-5.94Q60.83-6.69 61.98-7.34 63.14-8 64.35-8.65L64.35-8.65Q64.4-8.67 64.51-8.7L64.51-8.7Q65.18-9.08 65.26-9.51 65.34-9.94 64.96-10.55L64.96-10.55Q64.51-11.23 63.93-11.86 63.35-12.49 62.41-13L62.41-13Q61.5-13.48 60.71-13.43 59.91-13.37 59.32-12.98 58.73-12.6 58.38-12.06 58.03-11.52 57.95-11.06L57.95-11.06Q57.77-8.89 57.5-6.61L57.5-6.61Q57.42-5.94 57.39-5.32L57.39-5.32Q57.31-4.51 57.01-3.76L57.01-3.76Q56.75-2.95 55.38-3.01L55.38-3.01Q53.68-2.98 53.55-4.11L53.55-4.11Q53.39-6.58 53.38-10.34 53.36-14.1 53.66-18.38 53.95-22.67 54.7-26.75 55.46-30.83 56.69-33.96 57.93-37.09 59.83-38.54L59.83-38.54Q60.69-39.16 62-39.48 63.3-39.8 64.75-39.75L64.75-39.75Q68.45-39.5 69.64-37.01L69.64-37.01Q70.28-35.48 69.93-33.41 69.58-31.34 68.64-29.02 67.7-26.69 66.44-24.44 65.18-22.18 63.96-20.29 62.73-18.4 61.82-17.19L61.82-17.19Q61.18-16.33 60.51-15.33L60.51-15.33Q60.16-14.85 59.73-14.29L59.73-14.29Q65.93-15.28 68.86-10.58L68.86-10.58Q69.39-10.72 70.12-10.85L70.12-10.85Q71.52-11.15 73.02-11.59 74.52-12.03 75.49-12.76ZM63.54-38.27L63.54-38.27Q62.09-37.17 61.15-34.97 60.21-32.76 59.63-29.97 59.06-27.18 58.73-24.28 58.41-21.38 58.4-18.88 58.38-16.38 58.52-14.77L58.52-14.77Q58.92-15.33 59.32-15.9L59.32-15.9Q60.29-17.21 61.2-18.5L61.2-18.5Q61.96-19.52 63.07-21.36 64.18-23.2 65.33-25.49 66.47-27.77 67.26-30.1 68.05-32.44 68.15-34.43 68.24-36.42 67.27-37.71L67.27-37.71Q66.47-38.67 65.47-38.81 64.48-38.94 63.54-38.27ZM61.85-0.24L61.85-0.24Q63.38 0.08 64.27-0.44 65.15-0.97 65.59-1.99 66.04-3.01 66.17-4.2 66.31-5.4 66.2-6.47 66.09-7.55 65.93-8.14L65.93-8.14Q65.82-8.08 65.53-7.95L65.53-7.95Q64.69-7.57 63.23-6.73 61.77-5.88 60.61-4.65L60.61-4.65Q59.91-3.84 59.71-2.94 59.51-2.04 60-1.3 60.48-0.56 61.85-0.24ZM92.01-12.86L92.01-12.86Q92.38-12.86 92.4-12.7 92.41-12.54 92.29-12.3 92.17-12.06 92.01-11.84L92.01-11.84Q91.98-11.79 91.9-11.76L91.9-11.76Q91.31-10.8 90.37-9.8 89.43-8.81 88.19-7.98 86.96-7.14 85.37-6.71L85.37-6.71Q83.9-6.31 82.19-6.42 80.49-6.53 78.82-7.33 77.16-8.14 75.79-9.8L75.79-9.8Q74.44-11.49 74.66-13.33 74.87-15.17 76.62-16.33L76.62-16.33Q77.56-16.95 78.7-17.31 79.84-17.67 81.32-17.59L81.32-17.59Q81.99-17.59 82.63-17.42 83.28-17.24 83.71-16.78L83.71-16.78Q84.17-16.25 84.02-15.83 83.87-15.42 83.39-15.09L83.39-15.09Q82.71-14.56 81.83-14.19 80.94-13.83 79.81-13.75L79.81-13.75Q79.2-13.72 78.97-13.52 78.74-13.32 78.74-12.94L78.74-12.94Q78.71-11.82 79.26-10.76 79.81-9.69 81.13-8.73L81.13-8.73Q82.39-7.81 83.71-7.59 85.02-7.36 86.29-7.9L86.29-7.9Q87.6-8.49 88.62-9.35 89.64-10.21 90.48-11.12L90.48-11.12Q90.64-11.28 90.8-11.44L90.8-11.44Q90.85-11.49 91.01-11.67 91.17-11.84 91.31-12.06L91.31-12.06Q91.47-12.27 91.63-12.45 91.79-12.62 91.89-12.74 91.98-12.86 92.01-12.86ZM80.78-16.35L80.78-16.35Q80.08-15.98 79.65-15.48 79.22-14.99 79.04-14.26L79.04-14.26Q81.26-14.53 81.83-15.76L81.83-15.76Q81.96-15.9 81.94-16.06 81.91-16.22 81.64-16.38L81.64-16.38Q81.37-16.54 81.16-16.5 80.94-16.46 80.78-16.35ZM110.94-12.68L110.94-12.68Q111.13-12.86 111.42-12.85 111.72-12.84 111.88-12.6L111.88-12.6Q112.07-12.17 111.85-11.57 111.64-10.98 111.37-10.53L111.37-10.53Q111.32-10.42 111.29-10.34L111.29-10.34Q111.13-10.07 111.05-9.78L111.05-9.78Q110.4-8.57 109.49-6.86 108.58-5.16 107.42-3.32 106.27-1.48 104.9 0.16 103.53 1.8 102 2.91 100.47 4.03 98.88 4.24L98.88 4.24Q96.46 4.51 94.95 4.08 93.43 3.65 92.53 2.75 91.63 1.85 91.28 0.67 90.93-0.51 90.84-1.73 90.74-2.95 90.8-4.03L90.8-4.03Q91.17-12.57 92.41-20.97L92.41-20.97Q92.46-21.43 92.52-21.91L92.52-21.91Q92.46-22.4 91.77-22.53L91.77-22.53Q89.78-22.96 87.79-23.28 85.8-23.61 83.86-23.62 81.91-23.63 80-23.12L80-23.12Q79.98-23.12 79.9-23.1L79.9-23.1Q79.04-22.88 78.23-22.6 77.42-22.32 76.81-21.83L76.81-21.83Q76.62-21.65 76.3-21.56 75.97-21.48 75.65-21.73L75.65-21.73Q75.36-21.97 75.52-22.14 75.68-22.32 75.95-22.45L75.95-22.45Q75.97-22.45 76.03-22.48L76.03-22.48Q76.83-22.99 77.8-23.34L77.8-23.34Q80.19-24.22 82.9-24.34 85.62-24.47 88.54-24.09L88.54-24.09Q89.86-23.93 91.25-23.69L91.25-23.69Q91.93-23.58 92.6-23.47L92.6-23.47Q92.73-23.96 92.79-24.47L92.79-24.47Q93-25.65 93.24-26.8L93.24-26.8Q93.38-27.74 93.86-28.57L93.86-28.57Q94.16-29.03 94.72-29.15 95.28-29.27 96.01-29.14L96.01-29.14Q96.73-29 96.92-28.67 97.11-28.33 97.11-27.93L97.11-27.93Q97.11-27.93 97.11-27.9L97.11-27.9Q97.3-26.1 97.11-24.33L97.11-24.33Q97.06-23.87 97.03-23.42L97.03-23.42Q97.03-22.93 97.31-22.69 97.59-22.45 98.26-22.34L98.26-22.34Q100.63-21.97 102.96-21.81 105.3-21.65 107.58-21.97L107.58-21.97Q109.11-22.18 110.46-22.63 111.8-23.07 112.85-23.79L112.85-23.79Q113.57-24.28 114.38-24.71L114.38-24.71Q114.97-24.98 115.59-25.03 116.2-25.08 116.34-24.81 116.47-24.55 115.61-23.85L115.61-23.85Q113.87-22.5 111.53-21.82 109.19-21.14 106.43-20.97L106.43-20.97Q102.59-20.76 98.59-21.3L98.59-21.3Q97.51-21.46 97.22-21.32 96.92-21.19 96.92-20.41L96.92-20.41Q96.33-13.19 95.77-5.99L95.77-5.99Q95.44-2.31 95.91-0.03 96.38 2.26 97.55 2.91 98.72 3.57 100.59 2.36 102.45 1.15 105.03-2.18L105.03-2.18Q106.08-3.57 106.84-4.97 107.61-6.36 108.36-7.76L108.36-7.76Q109.17-9.32 110.11-10.93L110.11-10.93Q110.16-11.12 110.4-11.57L110.4-11.57Q110.56-11.92 110.7-12.23 110.83-12.54 110.94-12.68ZM127.29-12.86L127.29-12.86Q127.67-12.86 127.68-12.7 127.7-12.54 127.58-12.3 127.46-12.06 127.29-11.84L127.29-11.84Q127.27-11.79 127.19-11.76L127.19-11.76Q126.6-10.8 125.66-9.8 124.72-8.81 123.48-7.98 122.25-7.14 120.66-6.71L120.66-6.71Q119.18-6.31 117.48-6.42 115.77-6.53 114.11-7.33 112.44-8.14 111.07-9.8L111.07-9.8Q109.73-11.49 109.95-13.33 110.16-15.17 111.91-16.33L111.91-16.33Q112.85-16.95 113.99-17.31 115.13-17.67 116.61-17.59L116.61-17.59Q117.28-17.59 117.92-17.42 118.57-17.24 119-16.78L119-16.78Q119.45-16.25 119.31-15.83 119.16-15.42 118.67-15.09L118.67-15.09Q118-14.56 117.12-14.19 116.23-13.83 115.1-13.75L115.1-13.75Q114.48-13.72 114.26-13.52 114.03-13.32 114.03-12.94L114.03-12.94Q114-11.82 114.55-10.76 115.1-9.69 116.42-8.73L116.42-8.73Q117.68-7.81 119-7.59 120.31-7.36 121.57-7.9L121.57-7.9Q122.89-8.49 123.91-9.35 124.93-10.21 125.76-11.12L125.76-11.12Q125.93-11.28 126.09-11.44L126.09-11.44Q126.14-11.49 126.3-11.67 126.46-11.84 126.6-12.06L126.6-12.06Q126.76-12.27 126.92-12.45 127.08-12.62 127.17-12.74 127.27-12.86 127.29-12.86ZM116.07-16.35L116.07-16.35Q115.37-15.98 114.94-15.48 114.51-14.99 114.32-14.26L114.32-14.26Q116.55-14.53 117.12-15.76L117.12-15.76Q117.25-15.9 117.22-16.06 117.2-16.22 116.93-16.38L116.93-16.38Q116.66-16.54 116.45-16.5 116.23-16.46 116.07-16.35ZM143.76-12.73L143.76-12.73Q143.76-12.73 143.85-12.73 143.95-12.73 144.11-12.72 144.27-12.7 144.39-12.66 144.51-12.62 144.58-12.55 144.64-12.49 144.58-12.39 144.51-12.3 144.27-12.14L144.27-12.14Q142.58-11.09 140.75-9.91L140.75-9.91Q138.49-8.38 136.37-7.12L136.37-7.12Q135.89-6.82 135.92-6.51 135.94-6.2 136.26-5.8L136.26-5.8Q137.18-4.65 138.08-3.14 138.98-1.64 139.46-0.07 139.94 1.5 139.69 2.85 139.43 4.19 138.06 5.08L138.06 5.08Q136.56 6.02 134.29 6.16 132.02 6.31 129.63 5.61L129.63 5.61Q127.56 4.94 126.74 3.81 125.93 2.69 126.02 1.45 126.11 0.21 126.7-0.81L126.7-0.81Q128.18-3.33 130.92-5.18L130.92-5.18Q131.43-5.56 131.44-5.95 131.46-6.34 130.95-6.85L130.95-6.85Q129.82-8.08 128.52-9.72 127.21-11.36 126.52-12.65L126.52-12.65Q125.87-14.02 126.4-15.15 126.92-16.27 128.36-16.88 129.79-17.48 131.89-17.29L131.89-17.29Q131.89-17.29 131.91-17.29L131.91-17.29Q132.21-17.27 132.5-17.21L132.5-17.21Q132.59-17.19 132.67-17.16L132.67-17.16Q133.23-17.05 133.7-16.85 134.17-16.65 134.17-16.25L134.17-16.25Q134.17-15.76 133.69-15.7 133.2-15.63 132.59-15.82L132.59-15.82Q131.94-15.98 131.66-15.86 131.38-15.74 131.14-15.5L131.14-15.5Q130.33-14.53 130.73-13.28 131.14-12.03 132.17-10.74 133.2-9.45 134.28-8.33L134.28-8.33Q134.65-7.92 134.98-7.6L134.98-7.6Q136.67-8.73 139.19-10.31 141.72-11.9 143.76-12.73ZM135.73 2.18L135.73 2.18Q135.73 0.54 134.87-1.13 134.01-2.79 132.69-4.57L132.69-4.57Q130.22-2.55 129.39-0.78 128.56 0.99 128.91 2.35 129.26 3.71 130.34 4.46 131.43 5.21 132.71 5.21 133.98 5.21 134.95 4.24L134.95 4.24Q135.38 3.81 135.55 3.28 135.73 2.74 135.73 2.18Z" transform="translate(4.500204086303711, 39.75675582885742)"></path></g>       </g></g></svg></g></mask></svg>